# xmcd CD database file
#
# Track frame offsets:
#	150
#	13960
#	26735
#	41314
#	54766
#	66475
#	79980
#	93305
#	104803
#	116917
#	128299
#	142422
#	156730
#	170924
#
# Disc length: 2429 seconds
#
# Revision: 0
# Processed by: cddbd v1.5.1PL0 Copyright (c) Steve Scherf et al.
# Submitted via: CDex 1.51
#
DISCID=d1097b0e
DTITLE=Bing Crosby - giant of jazz
DYEAR=1900
DGENRE=Jazz
TTITLE0=when the blue of the night
TTITLE1=dinah
TTITLE2=brother can you spare a dime
TTITLE3=my melancholy baby
TTITLE4=I got a pocket full of dreams
TTITLE5=alexander's ragtime band
TTITLE6=you must have been a beautiful baby
TTITLE7=you are my sunshine
TTITLE8=ac-cent-tchu-ate the positive
TTITLE9=swinging on a star
TTITLE10=don't fence me in
TTITLE11=yah-tata( talk talk talk)
TTITLE12=now is the hour (maori farewell song)
TTITLE13=gone fishing
EXTD=
EXTT0=
EXTT1=
EXTT2=
EXTT3=
EXTT4=
EXTT5=
EXTT6=
EXTT7=
EXTT8=
EXTT9=
EXTT10=
EXTT11=
EXTT12=
EXTT13=
PLAYORDER=
